<svg width="1600" height="900" viewBox="0 0 1600 900" fill="none" xmlns="http://www.w3.org/2000/svg">
  <defs>
    <linearGradient id="bg" x1="0" y1="0" x2="1600" y2="900" gradientUnits="userSpaceOnUse">
      <stop stop-color="#071022"/>
      <stop offset="1" stop-color="#102041"/>
    </linearGradient>
    <linearGradient id="card" x1="0" y1="0" x2="1" y2="1">
      <stop stop-color="#18284C"/>
      <stop offset="1" stop-color="#101B34"/>
    </linearGradient>
    <linearGradient id="accent" x1="0" y1="0" x2="1" y2="1">
      <stop stop-color="#4F7CFF"/>
      <stop offset="1" stop-color="#35D5FF"/>
    </linearGradient>
  </defs>
  <rect width="1600" height="900" rx="36" fill="url(#bg)"/>
  <circle cx="1320" cy="120" r="220" fill="#2A4CFF" fill-opacity="0.14"/>
  <circle cx="200" cy="760" r="240" fill="#1FC9A8" fill-opacity="0.1"/>
  <rect x="56" y="56" width="252" height="788" rx="30" fill="#0C1730" stroke="#24355E"/>
  <rect x="92" y="102" width="72" height="72" rx="22" fill="url(#accent)"/>
  <text x="188" y="132" fill="#F3F7FF" font-family="Arial, Helvetica, sans-serif" font-size="34" font-weight="700">Badabrand</text>
  <text x="188" y="168" fill="#9AA8CB" font-family="Arial, Helvetica, sans-serif" font-size="24">Technologies</text>
  <g fill="#C8D4F3" font-family="Arial, Helvetica, sans-serif" font-size="24">
    <text x="96" y="252">Dashboard</text>
    <text x="96" y="308">Clients</text>
    <text x="96" y="364">Services</text>
    <text x="96" y="420">Marketplace</text>
    <text x="96" y="476">Billing</text>
    <text x="96" y="532">Projects</text>
    <text x="96" y="588">Support</text>
    <text x="96" y="644">Marketing</text>
    <text x="96" y="700">Modules</text>
    <text x="96" y="756">Settings</text>
  </g>
  <rect x="336" y="56" width="1208" height="96" rx="28" fill="#0E1A34" stroke="#24355E"/>
  <rect x="384" y="84" width="560" height="42" rx="18" fill="#162546"/>
  <text x="420" y="112" fill="#8EA3D4" font-family="Arial, Helvetica, sans-serif" font-size="20">Search users, services, orders, tickets, and projects</text>
  <rect x="980" y="80" width="140" height="48" rx="18" fill="url(#accent)"/>
  <text x="1018" y="111" fill="#FFFFFF" font-family="Arial, Helvetica, sans-serif" font-size="22" font-weight="700">Create</text>
  <rect x="1140" y="80" width="48" height="48" rx="16" fill="#162546"/>
  <rect x="1204" y="80" width="48" height="48" rx="16" fill="#162546"/>
  <rect x="1270" y="72" width="226" height="60" rx="20" fill="#162546"/>
  <text x="1348" y="104" fill="#FFFFFF" font-family="Arial, Helvetica, sans-serif" font-size="22" font-weight="700">Admin User</text>
  <text x="1348" y="128" fill="#93A6D3" font-family="Arial, Helvetica, sans-serif" font-size="18">Admin</text>
  <rect x="336" y="180" width="1208" height="142" rx="28" fill="url(#card)" stroke="#2A3E6A"/>
  <text x="380" y="228" fill="#94A9D7" font-family="Arial, Helvetica, sans-serif" font-size="18" letter-spacing="2">OVERVIEW</text>
  <text x="380" y="276" fill="#FFFFFF" font-family="Arial, Helvetica, sans-serif" font-size="46" font-weight="700">Business command center</text>
  <text x="380" y="312" fill="#A3B3D8" font-family="Arial, Helvetica, sans-serif" font-size="24">Revenue, operations, users, support, and alerts in one clean workspace.</text>
  <rect x="336" y="350" width="282" height="198" rx="26" fill="url(#card)" stroke="#2A3E6A"/>
  <rect x="640" y="350" width="282" height="198" rx="26" fill="url(#card)" stroke="#2A3E6A"/>
  <rect x="944" y="350" width="282" height="198" rx="26" fill="url(#card)" stroke="#2A3E6A"/>
  <rect x="1248" y="350" width="296" height="198" rx="26" fill="url(#card)" stroke="#2A3E6A"/>
  <text x="370" y="400" fill="#96A8CF" font-family="Arial, Helvetica, sans-serif" font-size="20">Revenue</text>
  <text x="370" y="462" fill="#FFFFFF" font-family="Arial, Helvetica, sans-serif" font-size="42" font-weight="700">₹50,731.74</text>
  <text x="674" y="400" fill="#96A8CF" font-family="Arial, Helvetica, sans-serif" font-size="20">Orders</text>
  <text x="674" y="462" fill="#FFFFFF" font-family="Arial, Helvetica, sans-serif" font-size="42" font-weight="700">7</text>
  <text x="978" y="400" fill="#96A8CF" font-family="Arial, Helvetica, sans-serif" font-size="20">Clients</text>
  <text x="978" y="462" fill="#FFFFFF" font-family="Arial, Helvetica, sans-serif" font-size="42" font-weight="700">4</text>
  <text x="1282" y="400" fill="#96A8CF" font-family="Arial, Helvetica, sans-serif" font-size="20">Support</text>
  <text x="1282" y="462" fill="#FFFFFF" font-family="Arial, Helvetica, sans-serif" font-size="42" font-weight="700">2 Open</text>
  <rect x="336" y="580" width="760" height="232" rx="26" fill="url(#card)" stroke="#2A3E6A"/>
  <rect x="1120" y="580" width="424" height="232" rx="26" fill="url(#card)" stroke="#2A3E6A"/>
  <text x="372" y="628" fill="#FFFFFF" font-family="Arial, Helvetica, sans-serif" font-size="30" font-weight="700">Payments and collections</text>
  <text x="372" y="670" fill="#A7B5D6" font-family="Arial, Helvetica, sans-serif" font-size="22">Track approvals, pending proofs, and transaction activity.</text>
  <text x="1156" y="628" fill="#FFFFFF" font-family="Arial, Helvetica, sans-serif" font-size="30" font-weight="700">Admin tasks waiting</text>
  <text x="1156" y="670" fill="#A7B5D6" font-family="Arial, Helvetica, sans-serif" font-size="22">Approvals, payouts, contracts, and support escalations.</text>
</svg>
