<svg width="1600" height="900" viewBox="0 0 1600 900" fill="none" xmlns="http://www.w3.org/2000/svg">
  <defs>
    <linearGradient id="bg" x1="0" y1="0" x2="1600" y2="900" gradientUnits="userSpaceOnUse">
      <stop stop-color="#060E20"/>
      <stop offset="1" stop-color="#132447"/>
    </linearGradient>
    <linearGradient id="accent" x1="0" y1="0" x2="1" y2="1">
      <stop stop-color="#4F7CFF"/>
      <stop offset="1" stop-color="#37D3FF"/>
    </linearGradient>
  </defs>
  <rect width="1600" height="900" rx="36" fill="url(#bg)"/>
  <rect x="74" y="74" width="392" height="752" rx="30" fill="#0C1730" stroke="#23355E"/>
  <rect x="110" y="110" width="72" height="72" rx="22" fill="url(#accent)"/>
  <text x="204" y="146" fill="#F5F8FF" font-family="Arial, Helvetica, sans-serif" font-size="36" font-weight="700">Badabrand Technologies</text>
  <text x="204" y="182" fill="#9CADCE" font-family="Arial, Helvetica, sans-serif" font-size="24">Web Installer v1.0.0</text>
  <rect x="110" y="228" width="210" height="48" rx="22" fill="#13254A" stroke="#284076"/>
  <text x="128" y="259" fill="#91A6FF" font-family="Arial, Helvetica, sans-serif" font-size="22" letter-spacing="1">PRODUCTION SETUP</text>
  <text x="110" y="352" fill="#FFFFFF" font-family="Arial, Helvetica, sans-serif" font-size="66" font-weight="700">Launch your</text>
  <text x="110" y="420" fill="#FFFFFF" font-family="Arial, Helvetica, sans-serif" font-size="66" font-weight="700">Badabrand</text>
  <text x="110" y="488" fill="#FFFFFF" font-family="Arial, Helvetica, sans-serif" font-size="66" font-weight="700">workspace</text>
  <g>
    <rect x="110" y="602" width="320" height="96" rx="26" fill="#12303B"/>
    <rect x="110" y="720" width="320" height="96" rx="26" fill="#12303B"/>
    <text x="150" y="660" fill="#FFFFFF" font-family="Arial, Helvetica, sans-serif" font-size="28" font-weight="700">1  Welcome</text>
    <text x="150" y="778" fill="#FFFFFF" font-family="Arial, Helvetica, sans-serif" font-size="28" font-weight="700">2  Requirements</text>
  </g>
  <rect x="514" y="74" width="1012" height="752" rx="30" fill="#101B34" stroke="#23355E"/>
  <rect x="562" y="122" width="110" height="52" rx="22" fill="#13254A" stroke="#284076"/>
  <text x="584" y="156" fill="#91A6FF" font-family="Arial, Helvetica, sans-serif" font-size="22">STEP 6</text>
  <text x="562" y="268" fill="#FFFFFF" font-family="Arial, Helvetica, sans-serif" font-size="64" font-weight="700">Business and branding setup</text>
  <text x="562" y="332" fill="#A5B5D8" font-family="Arial, Helvetica, sans-serif" font-size="28">Configure support, branding, and identity defaults in a guided flow.</text>
  <rect x="562" y="396" width="432" height="92" rx="24" fill="#1A2640" stroke="#2A3E6A"/>
  <rect x="1018" y="396" width="460" height="92" rx="24" fill="#1A2640" stroke="#2A3E6A"/>
  <rect x="562" y="526" width="432" height="92" rx="24" fill="#1A2640" stroke="#2A3E6A"/>
  <rect x="1018" y="526" width="460" height="92" rx="24" fill="#1A2640" stroke="#2A3E6A"/>
  <rect x="562" y="656" width="916" height="110" rx="24" fill="#1A2640" stroke="#2A3E6A"/>
  <text x="588" y="448" fill="#FFFFFF" font-family="Arial, Helvetica, sans-serif" font-size="22">Company name</text>
  <text x="588" y="478" fill="#D9E3FF" font-family="Arial, Helvetica, sans-serif" font-size="30" font-weight="700">Badabrand Technologies</text>
  <text x="1044" y="448" fill="#FFFFFF" font-family="Arial, Helvetica, sans-serif" font-size="22">Support email</text>
  <text x="1044" y="478" fill="#D9E3FF" font-family="Arial, Helvetica, sans-serif" font-size="30" font-weight="700">support@badabrand.in</text>
  <text x="588" y="578" fill="#FFFFFF" font-family="Arial, Helvetica, sans-serif" font-size="22">Support phone</text>
  <text x="588" y="608" fill="#D9E3FF" font-family="Arial, Helvetica, sans-serif" font-size="30" font-weight="700">+91 9109566312</text>
  <text x="1044" y="578" fill="#FFFFFF" font-family="Arial, Helvetica, sans-serif" font-size="22">WhatsApp number</text>
  <text x="1044" y="608" fill="#D9E3FF" font-family="Arial, Helvetica, sans-serif" font-size="30" font-weight="700">+91 9109566312</text>
  <text x="588" y="714" fill="#FFFFFF" font-family="Arial, Helvetica, sans-serif" font-size="22">Company address</text>
  <text x="588" y="748" fill="#D9E3FF" font-family="Arial, Helvetica, sans-serif" font-size="30" font-weight="700">Balaghat, Madhya Pradesh, India</text>
</svg>
