<svg width="1600" height="900" viewBox="0 0 1600 900" fill="none" xmlns="http://www.w3.org/2000/svg">
  <defs>
    <linearGradient id="bg" x1="0" y1="0" x2="1600" y2="900" gradientUnits="userSpaceOnUse">
      <stop stop-color="#081122"/>
      <stop offset="1" stop-color="#15284E"/>
    </linearGradient>
    <linearGradient id="accent" x1="0" y1="0" x2="1" y2="1">
      <stop stop-color="#4F7CFF"/>
      <stop offset="1" stop-color="#28D8FF"/>
    </linearGradient>
  </defs>
  <rect width="1600" height="900" rx="36" fill="url(#bg)"/>
  <rect x="70" y="70" width="1460" height="96" rx="28" fill="#0E1A34" stroke="#24355E"/>
  <text x="118" y="128" fill="#FFFFFF" font-family="Arial, Helvetica, sans-serif" font-size="44" font-weight="700">Badabrand Marketplace</text>
  <rect x="1090" y="94" width="320" height="48" rx="18" fill="#162546"/>
  <text x="1128" y="124" fill="#8EA3D4" font-family="Arial, Helvetica, sans-serif" font-size="22">Search products, themes, plugins</text>
  <rect x="70" y="196" width="1460" height="160" rx="30" fill="#111F3B" stroke="#24355E"/>
  <text x="116" y="258" fill="#8EA3D4" font-family="Arial, Helvetica, sans-serif" font-size="20" letter-spacing="2">DIGITAL PRODUCT COMMERCE</text>
  <text x="116" y="316" fill="#FFFFFF" font-family="Arial, Helvetica, sans-serif" font-size="56" font-weight="700">Sell software, themes, templates, and services</text>
  <text x="116" y="346" fill="#A7B5D6" font-family="Arial, Helvetica, sans-serif" font-size="24">Marketplace-ready product pages, vendor tools, orders, reviews, and buyer access.</text>
  <g>
    <rect x="70" y="392" width="440" height="420" rx="28" fill="#101B34" stroke="#24355E"/>
    <rect x="530" y="392" width="440" height="420" rx="28" fill="#101B34" stroke="#24355E"/>
    <rect x="990" y="392" width="540" height="420" rx="28" fill="#101B34" stroke="#24355E"/>
  </g>
  <g>
    <rect x="104" y="426" width="372" height="170" rx="24" fill="url(#accent)" fill-opacity="0.2"/>
    <rect x="564" y="426" width="372" height="170" rx="24" fill="url(#accent)" fill-opacity="0.2"/>
    <rect x="1024" y="426" width="472" height="64" rx="20" fill="#162546"/>
    <rect x="1024" y="514" width="472" height="64" rx="20" fill="#162546"/>
    <rect x="1024" y="602" width="472" height="64" rx="20" fill="#162546"/>
  </g>
  <text x="116" y="640" fill="#FFFFFF" font-family="Arial, Helvetica, sans-serif" font-size="32" font-weight="700">Themes & templates</text>
  <text x="116" y="680" fill="#A7B5D6" font-family="Arial, Helvetica, sans-serif" font-size="22">Curated storefront for digital assets and product bundles.</text>
  <text x="576" y="640" fill="#FFFFFF" font-family="Arial, Helvetica, sans-serif" font-size="32" font-weight="700">Plugins & software</text>
  <text x="576" y="680" fill="#A7B5D6" font-family="Arial, Helvetica, sans-serif" font-size="22">Product cards, pricing, reviews, and order ownership flow.</text>
  <text x="1044" y="470" fill="#FFFFFF" font-family="Arial, Helvetica, sans-serif" font-size="30" font-weight="700">Vendor onboarding and approvals</text>
  <text x="1044" y="558" fill="#FFFFFF" font-family="Arial, Helvetica, sans-serif" font-size="30" font-weight="700">Commission and payout tracking</text>
  <text x="1044" y="646" fill="#FFFFFF" font-family="Arial, Helvetica, sans-serif" font-size="30" font-weight="700">Marketplace reviews and trust signals</text>
</svg>
