<svg xmlns="http://www.w3.org/2000/svg" viewBox="0 0 64 64">
  <defs>
    <linearGradient id="g" x1="0%" y1="0%" x2="100%" y2="100%">
      <stop offset="0%" stop-color="#4e6bff"/>
      <stop offset="100%" stop-color="#28d8ff"/>
    </linearGradient>
  </defs>
  <rect width="64" height="64" rx="18" fill="#0d1437"/>
  <path d="M20 14h14c9 0 14 4 14 11 0 5-2 8-7 10 6 1 10 5 10 12 0 10-7 15-18 15H20V14zm13 18c5 0 8-2 8-6s-3-6-8-6h-6v12h6zm2 24c6 0 9-3 9-8 0-6-3-9-9-9h-8v17h8z" fill="url(#g)"/>
</svg>
