<svg xmlns="http://www.w3.org/2000/svg" viewBox="0 0 260 260" fill="none">
  <rect width="260" height="260" rx="24" fill="#fff"/>
  <rect x="24" y="24" width="68" height="68" fill="#000"/>
  <rect x="38" y="38" width="40" height="40" fill="#fff"/>
  <rect x="46" y="46" width="24" height="24" fill="#000"/>
  <rect x="168" y="24" width="68" height="68" fill="#000"/>
  <rect x="182" y="38" width="40" height="40" fill="#fff"/>
  <rect x="190" y="46" width="24" height="24" fill="#000"/>
  <rect x="24" y="168" width="68" height="68" fill="#000"/>
  <rect x="38" y="182" width="40" height="40" fill="#fff"/>
  <rect x="46" y="190" width="24" height="24" fill="#000"/>
  <rect x="118" y="34" width="16" height="16" fill="#000"/>
  <rect x="118" y="66" width="16" height="16" fill="#000"/>
  <rect x="104" y="96" width="16" height="16" fill="#000"/>
  <rect x="134" y="96" width="16" height="16" fill="#000"/>
  <rect x="160" y="104" width="16" height="16" fill="#000"/>
  <rect x="186" y="108" width="16" height="16" fill="#000"/>
  <rect x="118" y="128" width="16" height="16" fill="#000"/>
  <rect x="146" y="132" width="16" height="16" fill="#000"/>
  <rect x="176" y="136" width="16" height="16" fill="#000"/>
  <rect x="208" y="136" width="16" height="16" fill="#000"/>
  <rect x="104" y="158" width="16" height="16" fill="#000"/>
  <rect x="134" y="162" width="16" height="16" fill="#000"/>
  <rect x="162" y="164" width="16" height="16" fill="#000"/>
  <rect x="194" y="166" width="16" height="16" fill="#000"/>
  <rect x="118" y="192" width="16" height="16" fill="#000"/>
  <rect x="150" y="196" width="16" height="16" fill="#000"/>
  <rect x="178" y="198" width="16" height="16" fill="#000"/>
  <rect x="210" y="198" width="16" height="16" fill="#000"/>
</svg>
