<svg xmlns="http://www.w3.org/2000/svg" viewBox="0 0 800 480" fill="none">
  <rect width="800" height="480" rx="36" fill="#10162F"/>
  <rect x="20" y="20" width="760" height="440" rx="30" fill="url(#bg)"/>
  <rect x="48" y="56" width="704" height="86" rx="22" fill="#0F1B42"/>
  <rect x="76" y="86" width="204" height="24" rx="12" fill="#F7FBFF"/>
  <rect x="312" y="86" width="100" height="24" rx="12" fill="#5CE1E6"/>
  <rect x="48" y="170" width="220" height="248" rx="26" fill="#F9FBFF"/>
  <rect x="292" y="170" width="220" height="248" rx="26" fill="#EDF4FF"/>
  <rect x="536" y="170" width="216" height="248" rx="26" fill="#FFF6DE"/>
  <path d="M130 250h56v38h32v56h-32v38h-56v-38H98v-56h32v-38Z" fill="#2D6EFF"/>
  <path d="M374 248h56v34h32v60h-32v34h-56v-34h-32v-60h32v-34Z" fill="#0E1630"/>
  <path d="M620 252h48l18 28-18 28h-48l-18-28 18-28Zm8 72h32l14 24-14 24h-32l-14-24 14-24Z" fill="#FFAB2D"/>
  <defs>
    <linearGradient id="bg" x1="40" y1="30" x2="738" y2="432" gradientUnits="userSpaceOnUse">
      <stop stop-color="#22335E"/>
      <stop offset=".5" stop-color="#151C3F"/>
      <stop offset="1" stop-color="#1A0F3A"/>
    </linearGradient>
  </defs>
</svg>
