<svg xmlns="http://www.w3.org/2000/svg" viewBox="0 0 800 480" fill="none">
  <rect width="800" height="480" rx="36" fill="#091023"/>
  <rect x="20" y="20" width="760" height="440" rx="30" fill="url(#bg)"/>
  <rect x="56" y="60" width="688" height="360" rx="28" fill="#0D1431" opacity=".95"/>
  <rect x="86" y="92" width="180" height="264" rx="20" fill="#111C45"/>
  <rect x="290" y="92" width="188" height="124" rx="20" fill="#223D88"/>
  <rect x="500" y="92" width="212" height="124" rx="20" fill="#1A275A"/>
  <rect x="290" y="236" width="422" height="120" rx="24" fill="#F8FAFF"/>
  <circle cx="176" cy="152" r="42" fill="#32D8FF"/>
  <rect x="124" y="228" width="104" height="16" rx="8" fill="#D9E6FF"/>
  <rect x="124" y="258" width="72" height="16" rx="8" fill="#D9E6FF" opacity=".72"/>
  <rect x="124" y="288" width="94" height="16" rx="8" fill="#D9E6FF" opacity=".52"/>
  <rect x="326" y="266" width="134" height="16" rx="8" fill="#27355E"/>
  <rect x="326" y="300" width="258" height="14" rx="7" fill="#405185"/>
  <rect x="326" y="330" width="214" height="14" rx="7" fill="#405185" opacity=".72"/>
  <defs>
    <linearGradient id="bg" x1="36" y1="28" x2="748" y2="434" gradientUnits="userSpaceOnUse">
      <stop stop-color="#11244C"/>
      <stop offset=".55" stop-color="#0F1736"/>
      <stop offset="1" stop-color="#172A55"/>
    </linearGradient>
  </defs>
</svg>
