<svg xmlns="http://www.w3.org/2000/svg" viewBox="0 0 800 480" fill="none">
  <rect width="800" height="480" rx="36" fill="#0B1228"/>
  <rect x="20" y="20" width="760" height="440" rx="30" fill="url(#bg)"/>
  <rect x="56" y="60" width="280" height="170" rx="24" fill="#142047"/>
  <rect x="86" y="96" width="220" height="22" rx="11" fill="#FDFDFD"/>
  <rect x="86" y="136" width="164" height="14" rx="7" fill="#BFD2FF"/>
  <rect x="86" y="162" width="186" height="14" rx="7" fill="#BFD2FF" opacity=".75"/>
  <rect x="380" y="60" width="360" height="256" rx="26" fill="#F9FAFF"/>
  <rect x="404" y="88" width="148" height="188" rx="18" fill="#E1E9FF"/>
  <rect x="572" y="88" width="144" height="86" rx="18" fill="#D7F0FF"/>
  <rect x="572" y="190" width="144" height="86" rx="18" fill="#FFF1D4"/>
  <rect x="56" y="278" width="684" height="124" rx="30" fill="#0C1432" opacity=".9"/>
  <circle cx="700" cy="100" r="34" fill="#FF6B2D"/>
  <text x="700" y="106" text-anchor="middle" font-family="Arial, sans-serif" font-size="22" font-weight="700" fill="#fff">THEME</text>
  <defs>
    <linearGradient id="bg" x1="28" y1="30" x2="734" y2="430" gradientUnits="userSpaceOnUse">
      <stop stop-color="#21466D"/>
      <stop offset=".45" stop-color="#1A223F"/>
      <stop offset="1" stop-color="#0D1538"/>
    </linearGradient>
  </defs>
</svg>
